<svg width="41" height="27" viewBox="0 0 41 27" fill="none" xmlns="http://www.w3.org/2000/svg">
<path d="M16.1719 13.3613C16.1719 16.4082 15.8379 18.5527 15.1699 19.7949C14.502 21.0254 13.3828 21.6406 11.8125 21.6406C10.2305 21.6406 9.09961 21.0137 8.41992 19.7598C7.75195 18.4941 7.41797 16.3613 7.41797 13.3613C7.41797 10.3613 7.75781 8.22852 8.4375 6.96289C9.11719 5.68555 10.2422 5.04688 11.8125 5.04688C13.3711 5.04688 14.4844 5.67383 15.1523 6.92773C15.832 8.18164 16.1719 10.3262 16.1719 13.3613ZM1.6875 13.3613C1.6875 17.4512 2.54883 20.5625 4.27148 22.6953C6.00586 24.8281 8.53125 25.8945 11.8477 25.8945C15.1641 25.8945 17.6836 24.834 19.4062 22.7129C21.1289 20.5801 21.9902 17.4629 21.9902 13.3613C21.9902 9.25977 21.1289 6.14844 19.4062 4.02734C17.6953 1.89453 15.1758 0.828125 11.8477 0.828125C8.53125 0.828125 6.00586 1.89453 4.27148 4.02734C2.54883 6.14844 1.6875 9.25977 1.6875 13.3613ZM15.2578 13.3613C15.2578 10.5957 14.9941 8.65625 14.4668 7.54297C13.9395 6.42969 13.0547 5.87305 11.8125 5.87305C10.5586 5.87305 9.66797 6.42969 9.14062 7.54297C8.61328 8.65625 8.34961 10.5957 8.34961 13.3613C8.34961 16.127 8.61328 18.0605 9.14062 19.1621C9.66797 20.2637 10.5586 20.8145 11.8125 20.8145C13.0547 20.8145 13.9395 20.2637 14.4668 19.1621C14.9941 18.0605 15.2578 16.127 15.2578 13.3613ZM0.755859 13.3613C0.755859 8.99023 1.69336 5.67969 3.56836 3.42969C5.44336 1.16797 8.19141 0.0371094 11.8125 0.0371094C15.4453 0.0371094 18.2051 1.16797 20.0918 3.42969C21.9902 5.67969 22.9395 8.99023 22.9395 13.3613C22.9395 17.7441 21.9961 21.0664 20.1094 23.3281C18.2227 25.5898 15.457 26.7207 11.8125 26.7207C8.19141 26.7207 5.44336 25.584 3.56836 23.3105C1.69336 21.0371 0.755859 17.7207 0.755859 13.3613ZM28.1953 6.89258V10.4785H33.8906V25.1738H39.4277V1.58398H35.4375C35.1445 3.24805 34.4062 4.51367 33.2227 5.38086C32.0508 6.23633 30.375 6.74023 28.1953 6.89258ZM32.9766 26V11.3047H27.2988V6.06641C29.666 6.00781 31.4004 5.58594 32.502 4.80078C33.6035 4.00391 34.3184 2.65625 34.6465 0.757812H40.3594V26H32.9766Z" fill="#BAB9B9"/>
</svg>
