<svg width="46" height="27" viewBox="0 0 46 27" fill="none" xmlns="http://www.w3.org/2000/svg">
<path d="M16.1719 13.3613C16.1719 16.4082 15.8379 18.5527 15.1699 19.7949C14.502 21.0254 13.3828 21.6406 11.8125 21.6406C10.2305 21.6406 9.09961 21.0137 8.41992 19.7598C7.75195 18.4941 7.41797 16.3613 7.41797 13.3613C7.41797 10.3613 7.75781 8.22852 8.4375 6.96289C9.11719 5.68555 10.2422 5.04688 11.8125 5.04688C13.3711 5.04688 14.4844 5.67383 15.1523 6.92773C15.832 8.18164 16.1719 10.3262 16.1719 13.3613ZM1.6875 13.3613C1.6875 17.4512 2.54883 20.5625 4.27148 22.6953C6.00586 24.8281 8.53125 25.8945 11.8477 25.8945C15.1641 25.8945 17.6836 24.834 19.4062 22.7129C21.1289 20.5801 21.9902 17.4629 21.9902 13.3613C21.9902 9.25977 21.1289 6.14844 19.4062 4.02734C17.6953 1.89453 15.1758 0.828125 11.8477 0.828125C8.53125 0.828125 6.00586 1.89453 4.27148 4.02734C2.54883 6.14844 1.6875 9.25977 1.6875 13.3613ZM15.2578 13.3613C15.2578 10.5957 14.9941 8.65625 14.4668 7.54297C13.9395 6.42969 13.0547 5.87305 11.8125 5.87305C10.5586 5.87305 9.66797 6.42969 9.14062 7.54297C8.61328 8.65625 8.34961 10.5957 8.34961 13.3613C8.34961 16.127 8.61328 18.0605 9.14062 19.1621C9.66797 20.2637 10.5586 20.8145 11.8125 20.8145C13.0547 20.8145 13.9395 20.2637 14.4668 19.1621C14.9941 18.0605 15.2578 16.127 15.2578 13.3613ZM0.755859 13.3613C0.755859 8.99023 1.69336 5.67969 3.56836 3.42969C5.44336 1.16797 8.19141 0.0371094 11.8125 0.0371094C15.4453 0.0371094 18.2051 1.16797 20.0918 3.42969C21.9902 5.67969 22.9395 8.99023 22.9395 13.3613C22.9395 17.7441 21.9961 21.0664 20.1094 23.3281C18.2227 25.5898 15.457 26.7207 11.8125 26.7207C8.19141 26.7207 5.44336 25.584 3.56836 23.3105C1.69336 21.0371 0.755859 17.7207 0.755859 13.3613ZM24.627 26V25.4551C24.627 23.627 25.1777 21.9102 26.2793 20.3047C27.3809 18.6875 29.1855 16.9883 31.6934 15.207C32.3027 14.7734 33.1641 14.2051 34.2773 13.502C37.0195 11.791 38.3906 10.2676 38.3906 8.93164C38.3906 7.93555 38.1152 7.15625 37.5645 6.59375C37.0137 6.01953 36.2695 5.73242 35.332 5.73242C34.1484 5.73242 33.2637 6.11328 32.6777 6.875C32.0918 7.625 31.7988 8.76758 31.7988 10.3027V10.7422H25.1016C25.1016 10.6484 25.0957 10.5137 25.084 10.3379C25.0723 10.1621 25.0664 10.0332 25.0664 9.95117C25.0664 6.88086 26.0156 4.46094 27.9141 2.69141C29.8125 0.921875 32.4141 0.0371094 35.7188 0.0371094C38.7539 0.0371094 41.1797 0.787109 42.9961 2.28711C44.8125 3.77539 45.7207 5.75 45.7207 8.21094C45.7207 11.1758 43.5996 13.918 39.3574 16.4375C39.0762 16.6016 38.8594 16.7305 38.707 16.8242C38.5898 16.8945 38.4023 17.0059 38.1445 17.1582C37.043 17.8262 36.1523 18.3828 35.4727 18.8281C35.0391 19.1211 34.6758 19.373 34.3828 19.584C34.1016 19.7949 33.8555 19.9883 33.6445 20.1641C33.9141 20.0469 34.1895 19.959 34.4707 19.9004C34.7637 19.8418 35.0742 19.8125 35.4023 19.8125H45.6504V26H24.627ZM25.6113 25.1738H44.7539V20.6387H32.0801C32.5723 20.1113 33.1992 19.5488 33.9609 18.9512C34.7344 18.3418 35.5723 17.75 36.4746 17.1758C37.0254 16.8359 37.7871 16.3789 38.7598 15.8047C40.3535 14.8555 41.3789 14.1992 41.8359 13.8359C42.9375 12.9922 43.6934 12.1777 44.1035 11.3926C44.5137 10.6074 44.7188 9.63477 44.7188 8.47461C44.7188 6.13086 43.9043 4.2793 42.2754 2.91992C40.6582 1.54883 38.4609 0.863281 35.6836 0.863281C32.7773 0.863281 30.4395 1.67188 28.6699 3.28906C26.9121 4.89453 26.0332 7.02734 26.0332 9.6875V9.91602H31.0078C31.0078 8.28711 31.3711 7.04492 32.0977 6.18945C32.8359 5.33398 33.9023 4.90625 35.2969 4.90625C36.5039 4.90625 37.4766 5.25781 38.2148 5.96094C38.9531 6.66406 39.3223 7.5957 39.3223 8.75586C39.3223 9.25977 39.252 9.7168 39.1113 10.127C38.9707 10.5254 38.7539 10.918 38.4609 11.3047C37.9453 12.0078 36.8379 12.8867 35.1387 13.9414C33.4395 14.9844 32.2441 15.7637 31.5527 16.2793C29.5371 17.7559 28.043 19.2207 27.0703 20.6738C26.1094 22.1152 25.623 23.6152 25.6113 25.1738Z" fill="#BAB9B9"/>
</svg>
