<svg width="46" height="27" viewBox="0 0 46 27" fill="none" xmlns="http://www.w3.org/2000/svg">
<path d="M16.1719 13.3613C16.1719 16.4082 15.8379 18.5527 15.1699 19.7949C14.502 21.0254 13.3828 21.6406 11.8125 21.6406C10.2305 21.6406 9.09961 21.0137 8.41992 19.7598C7.75195 18.4941 7.41797 16.3613 7.41797 13.3613C7.41797 10.3613 7.75781 8.22852 8.4375 6.96289C9.11719 5.68555 10.2422 5.04688 11.8125 5.04688C13.3711 5.04688 14.4844 5.67383 15.1523 6.92773C15.832 8.18164 16.1719 10.3262 16.1719 13.3613ZM1.6875 13.3613C1.6875 17.4512 2.54883 20.5625 4.27148 22.6953C6.00586 24.8281 8.53125 25.8945 11.8477 25.8945C15.1641 25.8945 17.6836 24.834 19.4062 22.7129C21.1289 20.5801 21.9902 17.4629 21.9902 13.3613C21.9902 9.25977 21.1289 6.14844 19.4062 4.02734C17.6953 1.89453 15.1758 0.828125 11.8477 0.828125C8.53125 0.828125 6.00586 1.89453 4.27148 4.02734C2.54883 6.14844 1.6875 9.25977 1.6875 13.3613ZM15.2578 13.3613C15.2578 10.5957 14.9941 8.65625 14.4668 7.54297C13.9395 6.42969 13.0547 5.87305 11.8125 5.87305C10.5586 5.87305 9.66797 6.42969 9.14062 7.54297C8.61328 8.65625 8.34961 10.5957 8.34961 13.3613C8.34961 16.127 8.61328 18.0605 9.14062 19.1621C9.66797 20.2637 10.5586 20.8145 11.8125 20.8145C13.0547 20.8145 13.9395 20.2637 14.4668 19.1621C14.9941 18.0605 15.2578 16.127 15.2578 13.3613ZM0.755859 13.3613C0.755859 8.99023 1.69336 5.67969 3.56836 3.42969C5.44336 1.16797 8.19141 0.0371094 11.8125 0.0371094C15.4453 0.0371094 18.2051 1.16797 20.0918 3.42969C21.9902 5.67969 22.9395 8.99023 22.9395 13.3613C22.9395 17.7441 21.9961 21.0664 20.1094 23.3281C18.2227 25.5898 15.457 26.7207 11.8125 26.7207C8.19141 26.7207 5.44336 25.584 3.56836 23.3105C1.69336 21.0371 0.755859 17.7207 0.755859 13.3613ZM24.8555 17.0703H31.7461C31.793 18.3242 32.1094 19.2559 32.6953 19.8652C33.2812 20.4746 34.1602 20.7793 35.332 20.7793C36.3516 20.7793 37.1309 20.5273 37.6699 20.0234C38.2207 19.5195 38.4961 18.7871 38.4961 17.8262C38.4961 16.8535 38.1738 16.1504 37.5293 15.7168C36.8848 15.2715 35.8359 15.0488 34.3828 15.0488H33.7676V10.707H34.2773C35.625 10.707 36.6328 10.4902 37.3008 10.0566C37.9805 9.62305 38.3203 8.97266 38.3203 8.10547C38.3203 7.34375 38.0801 6.76367 37.5996 6.36523C37.1191 5.9668 36.4219 5.76758 35.5078 5.76758C34.4766 5.76758 33.6973 5.99609 33.1699 6.45312C32.6426 6.91016 32.3379 7.60742 32.2559 8.54492H25.4707C25.4941 6.01367 26.4434 3.96289 28.3184 2.39258C30.2051 0.822266 32.6602 0.0371094 35.6836 0.0371094C38.6133 0.0371094 40.9453 0.710937 42.6797 2.05859C44.4258 3.39453 45.2988 5.16992 45.2988 7.38477C45.2988 8.69727 44.9824 9.78711 44.3496 10.6543C43.7168 11.5098 42.832 12.0664 41.6953 12.3242C43.0195 12.5469 44.0566 13.168 44.8066 14.1875C45.5684 15.207 45.9492 16.502 45.9492 18.0723C45.9492 20.7559 44.9824 22.8711 43.0488 24.418C41.127 25.9531 38.4785 26.7207 35.1035 26.7207C31.9863 26.7207 29.4961 25.9004 27.6328 24.2598C25.7812 22.6191 24.8555 20.416 24.8555 17.6504V17.0703ZM34.6113 11.498V14.293C36.252 14.293 37.4648 14.5801 38.25 15.1543C39.0352 15.7285 39.4277 16.6074 39.4277 17.791C39.4277 18.9863 39.0703 19.9238 38.3555 20.6035C37.6406 21.2715 36.6445 21.6055 35.3672 21.6055C34.0195 21.6055 32.9648 21.2949 32.2031 20.6738C31.4414 20.0527 30.9844 19.127 30.832 17.8965H25.8223V18.0371C25.8223 20.3691 26.6777 22.2617 28.3887 23.7148C30.1113 25.168 32.3613 25.8945 35.1387 25.8945C38.2207 25.8945 40.6348 25.1914 42.3809 23.7852C44.127 22.3789 45 20.4512 45 18.002C45 16.5723 44.5957 15.3828 43.7871 14.4336C42.9785 13.4844 41.7773 12.793 40.1836 12.3594C41.5898 11.9023 42.6387 11.2754 43.3301 10.4785C44.0215 9.66992 44.3672 8.66211 44.3672 7.45508C44.3672 5.41602 43.5938 3.81055 42.0469 2.63867C40.5 1.45508 38.3672 0.863281 35.6484 0.863281C33.0117 0.863281 30.8789 1.4668 29.25 2.67383C27.6211 3.88086 26.6836 5.55078 26.4375 7.68359H31.5C31.6992 6.79297 32.1445 6.11914 32.8359 5.66211C33.5273 5.20508 34.4414 4.97656 35.5781 4.97656C36.75 4.97656 37.6523 5.24609 38.2852 5.78516C38.9297 6.3125 39.252 7.0625 39.252 8.03516C39.252 9.10156 38.8652 9.92188 38.0918 10.4961C37.3301 11.0703 36.1699 11.4043 34.6113 11.498Z" fill="#BAB9B9"/>
</svg>
