<svg width="47" height="27" viewBox="0 0 47 27" fill="none" xmlns="http://www.w3.org/2000/svg">
<path d="M16.1719 13.3613C16.1719 16.4082 15.8379 18.5527 15.1699 19.7949C14.502 21.0254 13.3828 21.6406 11.8125 21.6406C10.2305 21.6406 9.09961 21.0137 8.41992 19.7598C7.75195 18.4941 7.41797 16.3613 7.41797 13.3613C7.41797 10.3613 7.75781 8.22852 8.4375 6.96289C9.11719 5.68555 10.2422 5.04688 11.8125 5.04688C13.3711 5.04688 14.4844 5.67383 15.1523 6.92773C15.832 8.18164 16.1719 10.3262 16.1719 13.3613ZM1.6875 13.3613C1.6875 17.4512 2.54883 20.5625 4.27148 22.6953C6.00586 24.8281 8.53125 25.8945 11.8477 25.8945C15.1641 25.8945 17.6836 24.834 19.4062 22.7129C21.1289 20.5801 21.9902 17.4629 21.9902 13.3613C21.9902 9.25977 21.1289 6.14844 19.4062 4.02734C17.6953 1.89453 15.1758 0.828125 11.8477 0.828125C8.53125 0.828125 6.00586 1.89453 4.27148 4.02734C2.54883 6.14844 1.6875 9.25977 1.6875 13.3613ZM15.2578 13.3613C15.2578 10.5957 14.9941 8.65625 14.4668 7.54297C13.9395 6.42969 13.0547 5.87305 11.8125 5.87305C10.5586 5.87305 9.66797 6.42969 9.14062 7.54297C8.61328 8.65625 8.34961 10.5957 8.34961 13.3613C8.34961 16.127 8.61328 18.0605 9.14062 19.1621C9.66797 20.2637 10.5586 20.8145 11.8125 20.8145C13.0547 20.8145 13.9395 20.2637 14.4668 19.1621C14.9941 18.0605 15.2578 16.127 15.2578 13.3613ZM0.755859 13.3613C0.755859 8.99023 1.69336 5.67969 3.56836 3.42969C5.44336 1.16797 8.19141 0.0371094 11.8125 0.0371094C15.4453 0.0371094 18.2051 1.16797 20.0918 3.42969C21.9902 5.67969 22.9395 8.99023 22.9395 13.3613C22.9395 17.7441 21.9961 21.0664 20.1094 23.3281C18.2227 25.5898 15.457 26.7207 11.8125 26.7207C8.19141 26.7207 5.44336 25.584 3.56836 23.3105C1.69336 21.0371 0.755859 17.7207 0.755859 13.3613ZM28.1953 15.8398L37.2656 5.29297V15.8398H28.1953ZM37.0898 25.1738H42.4512V19.918H45.4395V15.8398H42.4512V1.58398H36.9492L25.4883 14.9082V19.918H37.0898V25.1738ZM29.6367 15.1719C29.8711 15.125 30.0938 15.0898 30.3047 15.0664C30.5156 15.0312 30.7031 15.0137 30.8672 15.0137H36.334V8.24609C36.334 8.08203 36.3633 7.88867 36.4219 7.66602C36.4805 7.44336 36.5684 7.20898 36.6855 6.96289C36.5566 7.20898 36.4219 7.4375 36.2812 7.64844C36.1523 7.85938 36.0469 8 35.9648 8.07031L30.7793 14.3457C30.6738 14.4746 30.5156 14.6152 30.3047 14.7676C30.1055 14.9082 29.8828 15.043 29.6367 15.1719ZM36.1582 26V20.7441H24.5566V14.627L36.3691 0.757812H43.3477V15.0137H46.3359V20.7441H43.3477V26H36.1582Z" fill="#BAB9B9"/>
</svg>
