<svg width="25" height="30" viewBox="0 0 25 30" fill="none" xmlns="http://www.w3.org/2000/svg">
<path d="M10.0974 9.54905C9.30074 9.54905 8.65493 8.90323 8.65493 8.10656C8.65493 7.84102 8.43964 7.62573 8.1741 7.62573C7.90856 7.62573 7.69327 7.84102 7.69327 8.10656C7.69327 8.90323 7.04746 9.54905 6.25079 9.54905C5.98525 9.54905 5.76996 9.76434 5.76996 10.0299C5.76996 10.2954 5.98525 10.5107 6.25079 10.5107C7.04746 10.5107 7.69327 11.1565 7.69327 11.9532C7.69327 12.2187 7.90856 12.434 8.1741 12.434C8.43964 12.434 8.65493 12.2187 8.65493 11.9532C8.65493 11.1565 9.30074 10.5107 10.0974 10.5107C10.363 10.5107 10.5782 10.2954 10.5782 10.0299C10.5782 9.76434 10.363 9.54905 10.0974 9.54905ZM8.1741 10.5107C8.03742 10.3285 7.87551 10.1666 7.69327 10.0299C7.87551 9.8932 8.03742 9.73128 8.1741 9.54905C8.31078 9.73128 8.47269 9.8932 8.65493 10.0299C8.47263 10.1666 8.31078 10.3284 8.1741 10.5107Z" fill="black"/>
<path d="M6.2508 5.70237C5.45412 5.70237 4.80831 5.05655 4.80831 4.25988C4.80831 3.99434 4.59302 3.77905 4.32748 3.77905C4.06194 3.77905 3.84665 3.99434 3.84665 4.25988C3.84665 5.05655 3.20084 5.70237 2.40417 5.70237C2.13863 5.70237 1.92334 5.91766 1.92334 6.18319C1.92334 6.44873 2.13863 6.66402 2.40417 6.66402C3.20084 6.66402 3.84665 7.30984 3.84665 8.10651C3.84665 8.37205 4.06194 8.58734 4.32748 8.58734C4.59302 8.58734 4.80831 8.37205 4.80831 8.10651C4.80831 7.30984 5.45412 6.66402 6.2508 6.66402C6.51633 6.66402 6.73162 6.44873 6.73162 6.18319C6.73162 5.91766 6.51633 5.70237 6.2508 5.70237ZM4.32748 6.66402C4.19081 6.48179 4.02889 6.31987 3.84665 6.18319C4.02889 6.04652 4.19081 5.8846 4.32748 5.70237C4.46416 5.8846 4.62608 6.04652 4.80831 6.18319C4.62602 6.31987 4.46416 6.48173 4.32748 6.66402Z" fill="black"/>
<path d="M19.2331 13.3958H1.92331C0.861103 13.3958 0 14.2569 0 15.3191C0 16.3813 0.861103 17.2424 1.92331 17.2424H2.88497V29.7439H18.2715V17.2424H19.2331C20.2953 17.2424 21.1564 16.3813 21.1564 15.3191C21.1564 14.2569 20.2953 13.3958 19.2331 13.3958ZM17.3098 28.7823H3.84663V23.974H17.3098V28.7823ZM17.3098 23.0123H3.84663V20.1273H17.3098V23.0123ZM17.3098 19.1657H3.84663V17.2424H17.3098V19.1657ZM19.2331 16.2807H1.92331C1.39218 16.2807 0.961657 15.8502 0.961657 15.3191C0.961657 14.7879 1.39218 14.3574 1.92331 14.3574H19.2331C19.7643 14.3574 20.1948 14.7879 20.1948 15.3191C20.1948 15.8502 19.7642 16.2807 19.2331 16.2807Z" fill="black"/>
<path d="M24.5528 1.32856C24.2731 1.05209 23.8962 0.896178 23.5029 0.894074C23.1043 0.89149 22.7214 1.04914 22.4403 1.33163L13.2661 10.5106L15.3865 12.6311L24.5655 3.45689C25.1497 2.86571 25.1441 1.91283 24.5528 1.32856ZM15.3865 11.2752L14.622 10.5106L15.8673 9.2653L16.6319 10.0298L15.3865 11.2752ZM23.8827 2.77411L17.3098 9.35185L16.5453 8.58733L23.123 2.0144C23.3339 1.80464 23.6748 1.80542 23.8846 2.01627C23.9846 2.1167 24.0409 2.25253 24.0414 2.39426C24.042 2.53712 23.9847 2.67416 23.8827 2.77411Z" fill="black"/>
<path d="M14.4249 4.74072H13.4632V5.70238H14.4249V4.74072Z" fill="black"/>
<path d="M14.4249 6.66406H13.4632V7.62572H14.4249V6.66406Z" fill="black"/>
<path d="M13.4632 5.70239H12.5015V6.66405H13.4632V5.70239Z" fill="black"/>
<path d="M15.3865 5.70239H14.4249V6.66405H15.3865V5.70239Z" fill="black"/>
</svg>
