<svg width="18" height="18" viewBox="0 0 18 18" fill="none" xmlns="http://www.w3.org/2000/svg">
<path d="M14.9181 2.28446C13.268 0.811447 11.0757 0 8.74592 0C6.41609 0 4.22381 0.811447 2.57369 2.28446C0.914148 3.76619 0 5.73855 0 7.83866C0 9.50619 0.573384 11.0924 1.65991 12.4344L0.658302 17.6548C0.648073 17.7079 0.652885 17.7628 0.672199 17.8133C0.691512 17.8639 0.724557 17.908 0.767608 17.9407C0.810659 17.9735 0.862004 17.9936 0.915853 17.9987C0.969701 18.0038 1.02391 17.9938 1.07237 17.9698L6.3192 15.3714C7.11193 15.5755 7.92733 15.6783 8.74592 15.6773C11.0757 15.6773 13.268 14.8659 14.9181 13.3929C16.5777 11.9111 17.4918 9.93877 17.4918 7.83866C17.4918 5.73855 16.5777 3.76619 14.9181 2.28446ZM8.74592 15.0967C7.94151 15.0977 7.14051 14.9921 6.36383 14.7828C6.29546 14.7642 6.22264 14.7713 6.15916 14.8027L1.33874 17.1899L2.25579 12.4101C2.26388 12.3678 2.26245 12.3241 2.25159 12.2824C2.24073 12.2407 2.22072 12.2018 2.19301 12.1688C1.13806 10.9103 0.580642 9.41293 0.580642 7.83866C0.580642 3.83659 4.2434 0.580642 8.74592 0.580642C13.2484 0.580642 16.9112 3.83659 16.9112 7.83866C16.9112 11.8407 13.2484 15.0967 8.74592 15.0967Z" fill="white"/>
<path d="M8.78222 8.7097C8.60996 8.7097 8.44157 8.65862 8.29834 8.56292C8.15511 8.46721 8.04347 8.33119 7.97755 8.17204C7.91163 8.01289 7.89438 7.83777 7.92799 7.66882C7.9616 7.49987 8.04455 7.34468 8.16635 7.22287C8.28816 7.10107 8.44335 7.01812 8.6123 6.98451C8.78125 6.9509 8.95637 6.96815 9.11552 7.03407C9.27467 7.09999 9.41069 7.21163 9.5064 7.35486C9.6021 7.49808 9.65318 7.66648 9.65318 7.83874C9.65291 8.06965 9.56106 8.29102 9.39778 8.4543C9.23451 8.61758 9.01313 8.70943 8.78222 8.7097ZM8.78222 7.54842C8.7248 7.54842 8.66867 7.56544 8.62092 7.59734C8.57318 7.62924 8.53597 7.67459 8.514 7.72764C8.49202 7.78068 8.48627 7.83906 8.49748 7.89538C8.50868 7.95169 8.53633 8.00342 8.57693 8.04402C8.61753 8.08463 8.66926 8.11228 8.72558 8.12348C8.7819 8.13468 8.84027 8.12893 8.89332 8.10696C8.94637 8.08498 8.99171 8.04777 9.02361 8.00003C9.05551 7.95229 9.07254 7.89616 9.07254 7.83874C9.07245 7.76177 9.04184 7.68797 8.98741 7.63354C8.93298 7.57912 8.85919 7.5485 8.78222 7.54842Z" fill="white"/>
<path d="M5.87896 8.7097C5.7067 8.7097 5.53831 8.65862 5.39508 8.56292C5.25185 8.46721 5.14022 8.33119 5.07429 8.17204C5.00837 8.01289 4.99113 7.83777 5.02473 7.66882C5.05834 7.49987 5.14129 7.34468 5.26309 7.22287C5.3849 7.10107 5.54009 7.01812 5.70904 6.98451C5.87799 6.9509 6.05311 6.96815 6.21226 7.03407C6.37141 7.09999 6.50744 7.21163 6.60314 7.35486C6.69884 7.49808 6.74992 7.66648 6.74992 7.83874C6.74965 8.06965 6.6578 8.29102 6.49452 8.4543C6.33125 8.61758 6.10987 8.70943 5.87896 8.7097ZM5.87896 7.54842C5.82154 7.54842 5.76541 7.56544 5.71766 7.59734C5.66992 7.62924 5.63271 7.67459 5.61074 7.72764C5.58876 7.78068 5.58301 7.83906 5.59422 7.89538C5.60542 7.95169 5.63307 8.00342 5.67367 8.04402C5.71427 8.08463 5.766 8.11228 5.82232 8.12348C5.87864 8.13468 5.93701 8.12893 5.99006 8.10696C6.04311 8.08498 6.08845 8.04777 6.12035 8.00003C6.15225 7.95229 6.16928 7.89616 6.16928 7.83874C6.16919 7.76177 6.13858 7.68797 6.08415 7.63354C6.02972 7.57912 5.95593 7.5485 5.87896 7.54842Z" fill="white"/>
<path d="M11.6854 6.96777C11.5132 6.96777 11.3448 7.01885 11.2015 7.11456C11.0583 7.21026 10.9467 7.34629 10.8808 7.50543C10.8148 7.66458 10.7976 7.8397 10.8312 8.00865C10.8648 8.1776 10.9477 8.33279 11.0696 8.4546C11.1914 8.57641 11.3465 8.65936 11.5155 8.69296C11.6845 8.72657 11.8596 8.70932 12.0187 8.6434C12.1779 8.57748 12.3139 8.46585 12.4096 8.32262C12.5053 8.17939 12.5564 8.011 12.5564 7.83874C12.5561 7.60784 12.4642 7.38648 12.3009 7.22321C12.1377 7.05994 11.9163 6.96808 11.6854 6.96777ZM11.6854 8.12906C11.628 8.12906 11.5719 8.11203 11.5241 8.08013C11.4764 8.04823 11.4392 8.00289 11.4172 7.94984C11.3952 7.89679 11.3895 7.83841 11.4007 7.7821C11.4119 7.72578 11.4395 7.67405 11.4801 7.63345C11.5207 7.59285 11.5725 7.5652 11.6288 7.55399C11.6851 7.54279 11.7435 7.54854 11.7965 7.57051C11.8496 7.59249 11.8949 7.6297 11.9268 7.67744C11.9587 7.72519 11.9757 7.78132 11.9757 7.83874C11.9756 7.9157 11.945 7.98948 11.8906 8.04391C11.8362 8.09833 11.7624 8.12895 11.6854 8.12906Z" fill="white"/>
</svg>
